<svg xmlns="http://www.w3.org/2000/svg" xmlns:xlink="http://www.w3.org/1999/xlink" zoomAndPan="magnify" preserveAspectRatio="xMidYMid meet" version="1.0" viewBox="1 158.19 366.94 57.75"><defs><g/><clipPath id="5013784472"><path d="M 1 158.191406 L 57 158.191406 L 57 215.941406 L 1 215.941406 Z M 1 158.191406 " clip-rule="nonzero"/></clipPath><clipPath id="52a62b9dc3"><path d="M 1 158.191406 L 29 158.191406 L 29 215.941406 L 1 215.941406 Z M 1 158.191406 " clip-rule="nonzero"/></clipPath></defs><g clip-path="url(#5013784472)"><path fill="#f8c909" d="M 33.503906 161.410156 C 31.152344 158.160156 26.3125 158.160156 23.960938 161.410156 C 23.488281 162.0625 22.605469 162.261719 21.898438 161.878906 C 18.371094 159.976562 14.011719 162.074219 13.300781 166.019531 C 13.15625 166.8125 12.449219 167.375 11.648438 167.339844 C 7.640625 167.152344 4.625 170.9375 5.695312 174.800781 C 5.910156 175.574219 5.519531 176.390625 4.78125 176.707031 C 1.089844 178.277344 0.015625 182.992188 2.65625 186.007812 C 3.1875 186.613281 3.1875 187.519531 2.65625 188.125 C 0.015625 191.140625 1.089844 195.855469 4.78125 197.429688 C 5.519531 197.742188 5.910156 198.558594 5.695312 199.332031 C 4.625 203.195312 7.640625 206.980469 11.648438 206.792969 C 12.449219 206.757812 13.15625 207.320312 13.300781 208.113281 C 14.011719 212.058594 18.371094 214.160156 21.898438 212.253906 C 22.605469 211.871094 23.488281 212.074219 23.960938 212.722656 C 26.3125 215.972656 31.152344 215.972656 33.503906 212.722656 C 33.976562 212.074219 34.855469 211.871094 35.566406 212.253906 C 39.09375 214.160156 43.453125 212.058594 44.164062 208.113281 C 44.304688 207.320312 45.011719 206.757812 45.816406 206.792969 C 49.820312 206.980469 52.839844 203.195312 51.765625 199.332031 C 51.550781 198.558594 51.945312 197.742188 52.683594 197.429688 C 56.375 195.855469 57.449219 191.140625 54.808594 188.125 C 54.277344 187.519531 54.277344 186.613281 54.808594 186.007812 C 57.449219 182.992188 56.375 178.277344 52.683594 176.707031 C 51.945312 176.390625 51.550781 175.574219 51.765625 174.800781 C 52.839844 170.9375 49.820312 167.152344 45.816406 167.339844 C 45.011719 167.375 44.304688 166.8125 44.164062 166.019531 C 43.453125 162.074219 39.09375 159.976562 35.566406 161.878906 C 34.855469 162.261719 33.976562 162.0625 33.503906 161.410156 Z M 33.503906 161.410156 " fill-opacity="1" fill-rule="nonzero"/></g><path fill="#037d43" d="M 28.730469 168.027344 C 18.21875 168.027344 9.695312 176.550781 9.695312 187.066406 C 9.695312 197.582031 18.21875 206.105469 28.730469 206.105469 C 39.246094 206.105469 47.769531 197.582031 47.769531 187.066406 C 47.769531 176.550781 39.246094 168.027344 28.730469 168.027344 Z M 28.730469 168.027344 " fill-opacity="1" fill-rule="nonzero"/><path fill="#f8c909" d="M 40.644531 180.351562 C 41.480469 181.191406 41.480469 182.546875 40.644531 183.386719 L 27.648438 196.378906 C 27.246094 196.78125 26.703125 197.007812 26.132812 197.007812 C 25.5625 197.007812 25.019531 196.78125 24.617188 196.378906 L 16.820312 188.582031 C 15.980469 187.746094 15.980469 186.386719 16.820312 185.550781 C 17.65625 184.714844 19.015625 184.714844 19.851562 185.550781 L 26.132812 191.832031 L 37.613281 180.351562 C 38.449219 179.515625 39.804688 179.515625 40.644531 180.351562 Z M 40.644531 180.351562 " fill-opacity="1" fill-rule="evenodd"/><g clip-path="url(#52a62b9dc3)"><path fill="#f8c909" d="M 28.730469 158.972656 L 28.730469 215.160156 C 26.933594 215.160156 25.136719 214.347656 23.960938 212.722656 C 23.488281 212.074219 22.605469 211.871094 21.898438 212.253906 C 18.371094 214.160156 14.011719 212.058594 13.300781 208.113281 C 13.15625 207.320312 12.449219 206.757812 11.648438 206.792969 C 7.640625 206.980469 4.625 203.195312 5.695312 199.332031 C 5.910156 198.558594 5.519531 197.742188 4.78125 197.429688 C 1.089844 195.855469 0.015625 191.140625 2.65625 188.125 C 3.1875 187.519531 3.1875 186.613281 2.65625 186.007812 C 0.015625 182.992188 1.089844 178.277344 4.78125 176.707031 C 5.519531 176.390625 5.910156 175.574219 5.695312 174.800781 C 4.625 170.9375 7.640625 167.152344 11.648438 167.339844 C 12.449219 167.375 13.15625 166.8125 13.300781 166.019531 C 14.011719 162.074219 18.371094 159.976562 21.898438 161.878906 C 22.605469 162.261719 23.488281 162.0625 23.960938 161.410156 C 25.136719 159.785156 26.933594 158.972656 28.730469 158.972656 Z M 28.730469 158.972656 " fill-opacity="1" fill-rule="evenodd"/></g><path fill="#037d43" d="M 28.730469 168.027344 L 28.730469 206.105469 C 18.21875 206.105469 9.695312 197.582031 9.695312 187.066406 C 9.695312 176.550781 18.21875 168.027344 28.730469 168.027344 Z M 28.730469 168.027344 " fill-opacity="1" fill-rule="evenodd"/><path fill="#f8c909" d="M 28.730469 189.230469 L 28.730469 195.296875 L 27.648438 196.378906 C 27.246094 196.78125 26.703125 197.007812 26.132812 197.007812 C 25.5625 197.007812 25.019531 196.78125 24.617188 196.378906 L 16.820312 188.582031 C 15.980469 187.746094 15.980469 186.386719 16.820312 185.550781 C 17.65625 184.714844 19.015625 184.714844 19.851562 185.550781 L 26.132812 191.832031 Z M 28.730469 189.230469 " fill-opacity="1" fill-rule="evenodd"/><path stroke-linecap="butt" transform="matrix(-0.00799377, 0.753188, -0.749958, -0.00795948, 30.158916, 168.199412)" fill="none" stroke-linejoin="miter" d="M 0.000019347 1.498431 L 50.789316 1.498767 " stroke="#037d43" stroke-width="3" stroke-opacity="1" stroke-miterlimit="4"/><path stroke-linecap="round" transform="matrix(-0.539319, 0.539319, -0.53033, -0.53033, 42.695913, 182.950358)" fill="none" stroke-linejoin="miter" d="M 3.9976 4.001213 L 25.512737 3.997531 " stroke="#f8c909" stroke-width="8" stroke-opacity="1" stroke-miterlimit="4"/><g fill="#037d43" fill-opacity="1"><g transform="translate(62.595322, 198.24712)"><g><path d="M 7.980469 0.0625 L 10.027344 0 L 10.914062 -0.304688 L 11.21875 -1.160156 L 11.3125 -2.75 L 11.21875 -3.914062 L 11.28125 -4.554688 L 11.25 -5.777344 L 11.3125 -6.328125 L 11.21875 -7 L 11.28125 -11.921875 L 11.1875 -12.5625 L 11.28125 -15.222656 L 11.523438 -16.140625 L 12.105469 -16.507812 L 13.296875 -16.570312 L 14.429688 -16.414062 L 15.070312 -16.507812 L 15.621094 -16.476562 L 16.140625 -16.8125 L 16.507812 -17.484375 L 16.539062 -20.390625 L 16.203125 -21 L 15.621094 -21.398438 L 13.726562 -21.398438 L 13.144531 -21.460938 L 12.503906 -21.367188 L 11.921875 -21.429688 L 9.445312 -21.308594 L 8.835938 -21.429688 L 8.253906 -21.460938 L 7.613281 -21.367188 L 6.9375 -21.429688 L 6.390625 -21.308594 L 4.585938 -21.398438 L 3.636719 -21.308594 L 1.496094 -21.429688 L 0.917969 -21.125 L 0.550781 -20.421875 L 0.582031 -19.808594 L 0.519531 -18.28125 L 0.582031 -17.332031 L 0.855469 -16.78125 L 1.40625 -16.476562 L 2.015625 -16.539062 L 4.921875 -16.476562 L 5.503906 -16.171875 L 5.839844 -15.558594 L 5.777344 -14.582031 L 5.839844 -13.726562 L 5.808594 -13.054688 L 5.839844 -12.441406 L 5.777344 -11.585938 L 5.871094 -7.03125 L 5.808594 -6.417969 L 5.777344 -3.945312 L 5.839844 -3.300781 L 5.808594 -1.527344 L 5.746094 -0.949219 L 6.144531 -0.273438 L 7.03125 0.03125 Z M 7.980469 0.0625 "/></g></g></g><g fill="#037d43" fill-opacity="1"><g transform="translate(79.681132, 198.24712)"><g><path d="M 2.292969 -1.253906 L 2.597656 -0.304688 L 3.484375 0.0898438 L 4.097656 0 L 5.074219 0.0898438 L 5.5625 0.03125 L 6.480469 0.03125 L 7.457031 -0.273438 L 7.734375 -1.160156 L 7.734375 -2.199219 L 7.796875 -2.75 L 7.703125 -3.394531 L 7.765625 -5.347656 L 8.039062 -5.960938 L 8.621094 -6.296875 L 10.394531 -6.050781 L 11.003906 -5.53125 L 11.371094 -4.921875 L 11.617188 -4.371094 L 12.257812 -3.453125 L 12.839844 -2.355469 L 13.175781 -1.894531 L 13.417969 -1.285156 L 13.757812 -0.765625 L 14.429688 -0.214844 L 15.46875 0.0625 L 17.882812 0.03125 L 18.464844 0.0898438 L 19.472656 0.0625 L 20.054688 -0.214844 L 20.238281 -0.886719 L 19.902344 -1.558594 L 19.535156 -1.988281 L 19.289062 -2.566406 L 18.25 -4.125 L 17.976562 -4.675781 L 16.996094 -6.265625 L 16.628906 -6.726562 L 16.597656 -7.457031 L 16.875 -8.132812 L 17.300781 -8.589844 L 17.730469 -8.957031 L 18.921875 -11.097656 L 19.320312 -12.871094 L 19.257812 -14.796875 L 19.167969 -15.40625 L 18.617188 -17.148438 L 18.371094 -17.667969 L 18.035156 -18.15625 L 16.292969 -19.992188 L 15.222656 -20.574219 L 14.0625 -20.96875 L 12.320312 -21.367188 L 11.339844 -21.398438 L 10.453125 -21.335938 L 8.621094 -21.335938 L 8.007812 -21.460938 L 7.398438 -21.460938 L 6.847656 -21.308594 L 6.234375 -21.308594 L 5.625 -21.429688 L 4.953125 -21.460938 L 3.148438 -21.308594 L 2.597656 -21 L 2.230469 -20.144531 L 2.261719 -13.144531 L 2.324219 -12.535156 L 2.230469 -11.3125 L 2.261719 -10.636719 L 2.261719 -10.027344 L 2.324219 -9.445312 L 2.261719 -8.863281 L 2.230469 -6.390625 L 2.292969 -5.777344 Z M 8.621094 -11.1875 L 8.007812 -11.523438 L 7.765625 -12.015625 L 7.765625 -13.847656 L 7.703125 -14.367188 L 7.765625 -15.652344 L 8.039062 -16.230469 L 8.683594 -16.476562 L 9.292969 -16.445312 L 10.515625 -16.570312 L 11.371094 -16.386719 L 12.167969 -16.324219 L 12.746094 -16.171875 L 13.511719 -15.222656 L 13.695312 -14.734375 L 13.816406 -13.941406 L 13.726562 -13.023438 L 13.449219 -12.410156 L 13.113281 -11.953125 L 12.777344 -11.675781 L 12.226562 -11.433594 L 11.339844 -11.21875 L 10.761719 -11.1875 L 9.292969 -11.25 Z M 8.621094 -11.1875 "/></g></g></g><g fill="#037d43" fill-opacity="1"><g transform="translate(100.893205, 198.24712)"><g><path d="M 10.515625 0.398438 L 11.433594 0.304688 L 12.015625 0.335938 L 14.398438 -0.273438 L 15.5 -0.855469 L 16.507812 -1.527344 L 17.363281 -2.382812 L 18.066406 -3.453125 L 18.25 -4.066406 L 18.554688 -4.585938 L 18.832031 -5.871094 L 18.984375 -7.335938 L 18.984375 -15.589844 L 18.921875 -16.171875 L 18.984375 -16.84375 L 18.921875 -17.332031 L 18.921875 -19.871094 L 19.015625 -20.480469 L 18.617188 -21.125 L 17.945312 -21.335938 L 16.019531 -21.277344 L 14.734375 -21.367188 L 14.09375 -21.0625 L 13.757812 -20.390625 L 13.816406 -8.34375 L 13.601562 -6.449219 L 13.417969 -5.992188 L 13.082031 -5.378906 L 12.5625 -5.011719 L 11.492188 -4.617188 L 9.660156 -4.617188 L 8.957031 -4.769531 L 8.4375 -5.074219 L 7.949219 -5.441406 L 7.582031 -5.929688 L 7.398438 -6.511719 L 7.214844 -8.285156 L 7.304688 -18.128906 L 7.246094 -18.585938 L 7.304688 -19.5625 L 7.246094 -20.449219 L 6.878906 -21.125 L 6.234375 -21.398438 L 5.65625 -21.398438 L 5.042969 -21.308594 L 3.730469 -21.429688 L 3.085938 -21.335938 L 2.445312 -21.09375 L 2.046875 -20.511719 L 2.109375 -19.902344 L 2.109375 -19.167969 L 2.046875 -18.679688 L 2.140625 -14.398438 L 2.046875 -13.785156 L 2.109375 -13.207031 L 2.015625 -8.285156 L 2.199219 -5.839844 L 2.507812 -4.585938 L 2.996094 -3.546875 L 3.699219 -2.445312 L 4.066406 -2.015625 L 4.523438 -1.621094 L 5.503906 -0.976562 L 6.113281 -0.703125 L 6.574219 -0.429688 L 7.734375 0.0898438 L 8.925781 0.335938 L 9.539062 0.335938 Z M 10.515625 0.398438 "/></g></g></g><g fill="#037d43" fill-opacity="1"><g transform="translate(121.983017, 198.24712)"><g><path d="M 8.222656 0.273438 L 10.636719 0.335938 L 11.25 0.273438 L 11.859375 0.121094 L 12.472656 0.03125 L 13.082031 -0.214844 L 13.632812 -0.273438 L 14.214844 -0.550781 L 16.292969 -1.804688 L 17.179688 -2.71875 L 17.484375 -3.148438 L 17.820312 -3.820312 L 18.003906 -4.371094 L 18.1875 -4.890625 L 18.371094 -6.417969 L 18.3125 -7.398438 L 17.851562 -9.171875 L 17.515625 -9.660156 L 16.722656 -10.578125 L 16.171875 -11.066406 L 15.683594 -11.3125 L 15.132812 -11.648438 L 12.746094 -12.378906 L 12.136719 -12.472656 L 11.523438 -12.503906 L 10.882812 -12.625 L 9.996094 -12.625 L 8.375 -12.960938 L 7.246094 -13.511719 L 6.785156 -13.941406 L 6.664062 -14.855469 L 6.816406 -15.683594 L 7.183594 -16.078125 L 7.640625 -16.414062 L 8.132812 -16.691406 L 8.683594 -16.8125 L 9.660156 -16.84375 L 10.636719 -16.722656 L 11.1875 -16.570312 L 11.738281 -16.203125 L 12.257812 -15.773438 L 12.714844 -15.164062 L 13.390625 -14.765625 L 14.824219 -14.886719 L 15.652344 -14.824219 L 16.261719 -14.824219 L 16.8125 -14.765625 L 17.394531 -15.191406 L 17.636719 -15.710938 L 17.515625 -16.292969 L 17.453125 -16.875 L 16.597656 -18.464844 L 15.925781 -19.382812 L 13.910156 -20.785156 L 12.195312 -21.367188 L 11.003906 -21.613281 L 8.652344 -21.671875 L 7.980469 -21.488281 L 7.367188 -21.460938 L 6.816406 -21.367188 L 5.65625 -21 L 4.617188 -20.390625 L 3.148438 -19.382812 L 2.078125 -17.945312 L 1.527344 -16.261719 L 1.4375 -14.765625 L 1.46875 -13.816406 L 1.679688 -12.59375 L 2.171875 -11.523438 L 3.300781 -10.117188 L 5.378906 -8.988281 L 6.480469 -8.621094 L 11.28125 -8.070312 L 12.378906 -7.550781 L 12.777344 -7.183594 L 12.960938 -6.417969 L 12.714844 -5.65625 L 12.320312 -5.195312 L 11.28125 -4.738281 L 10.332031 -4.675781 L 9.78125 -4.585938 L 8.222656 -4.738281 L 7.703125 -5.011719 L 7.183594 -5.347656 L 6.175781 -6.449219 L 5.5625 -6.695312 L 5.011719 -6.632812 L 4.433594 -6.726562 L 2.078125 -6.601562 L 1.527344 -6.359375 L 1.285156 -5.714844 L 1.375 -5.105469 L 1.496094 -4.492188 L 1.679688 -3.945312 L 2.261719 -2.8125 L 2.691406 -2.414062 L 3.085938 -1.957031 L 4.15625 -1.285156 L 4.585938 -0.824219 L 5.167969 -0.550781 L 5.777344 -0.367188 L 6.96875 0.0625 Z M 8.222656 0.273438 "/></g></g></g><g fill="#037d43" fill-opacity="1"><g transform="translate(141.483452, 198.24712)"><g><path d="M 7.980469 0.0625 L 10.027344 0 L 10.914062 -0.304688 L 11.21875 -1.160156 L 11.3125 -2.75 L 11.21875 -3.914062 L 11.28125 -4.554688 L 11.25 -5.777344 L 11.3125 -6.328125 L 11.21875 -7 L 11.28125 -11.921875 L 11.1875 -12.5625 L 11.28125 -15.222656 L 11.523438 -16.140625 L 12.105469 -16.507812 L 13.296875 -16.570312 L 14.429688 -16.414062 L 15.070312 -16.507812 L 15.621094 -16.476562 L 16.140625 -16.8125 L 16.507812 -17.484375 L 16.539062 -20.390625 L 16.203125 -21 L 15.621094 -21.398438 L 13.726562 -21.398438 L 13.144531 -21.460938 L 12.503906 -21.367188 L 11.921875 -21.429688 L 9.445312 -21.308594 L 8.835938 -21.429688 L 8.253906 -21.460938 L 7.613281 -21.367188 L 6.9375 -21.429688 L 6.390625 -21.308594 L 4.585938 -21.398438 L 3.636719 -21.308594 L 1.496094 -21.429688 L 0.917969 -21.125 L 0.550781 -20.421875 L 0.582031 -19.808594 L 0.519531 -18.28125 L 0.582031 -17.332031 L 0.855469 -16.78125 L 1.40625 -16.476562 L 2.015625 -16.539062 L 4.921875 -16.476562 L 5.503906 -16.171875 L 5.839844 -15.558594 L 5.777344 -14.582031 L 5.839844 -13.726562 L 5.808594 -13.054688 L 5.839844 -12.441406 L 5.777344 -11.585938 L 5.871094 -7.03125 L 5.808594 -6.417969 L 5.777344 -3.945312 L 5.839844 -3.300781 L 5.808594 -1.527344 L 5.746094 -0.949219 L 6.144531 -0.273438 L 7.03125 0.03125 Z M 7.980469 0.0625 "/></g></g></g><g fill="#037d43" fill-opacity="1"><g transform="translate(158.569262, 198.24712)"><g><path d="M 10.636719 0.0898438 L 15.007812 0.03125 L 15.652344 -0.246094 L 15.988281 -0.886719 L 15.988281 -3.972656 L 15.652344 -4.585938 L 15.007812 -4.859375 L 14.304688 -4.800781 L 13.726562 -4.890625 L 12.167969 -4.921875 L 11.15625 -4.800781 L 10.546875 -4.859375 L 9.875 -4.828125 L 9.292969 -4.921875 L 8.621094 -4.859375 L 7.980469 -5.167969 L 7.734375 -5.714844 L 7.734375 -7.640625 L 8.007812 -8.285156 L 8.558594 -8.621094 L 9.476562 -8.652344 L 10.453125 -8.558594 L 11.617188 -8.621094 L 12.871094 -8.589844 L 13.480469 -8.652344 L 14.183594 -8.621094 L 14.796875 -8.863281 L 15.007812 -9.476562 L 15.101562 -12.226562 L 14.796875 -13.082031 L 14.09375 -13.480469 L 12.289062 -13.480469 L 11.648438 -13.417969 L 10.363281 -13.511719 L 8.589844 -13.449219 L 7.949219 -13.726562 L 7.703125 -14.671875 L 7.703125 -15.621094 L 7.980469 -16.203125 L 8.652344 -16.445312 L 9.230469 -16.414062 L 9.8125 -16.539062 L 14.183594 -16.476562 L 14.765625 -16.507812 L 15.40625 -16.875 L 15.710938 -17.425781 L 15.683594 -18.035156 L 15.710938 -18.648438 L 15.652344 -20.480469 L 15.375 -21.0625 L 14.765625 -21.308594 L 14.121094 -21.308594 L 13.574219 -21.429688 L 11.097656 -21.398438 L 10.425781 -21.335938 L 9.8125 -21.398438 L 9.292969 -21.367188 L 8.683594 -21.429688 L 6.175781 -21.367188 L 5.5625 -21.460938 L 4.984375 -21.335938 L 4.433594 -21.398438 L 3.820312 -21.335938 L 3.210938 -21.367188 L 2.566406 -21.125 L 2.230469 -20.480469 L 2.292969 -19.320312 L 2.199219 -18.066406 L 2.292969 -17.394531 L 2.230469 -14.398438 L 2.324219 -13.757812 L 2.261719 -13.175781 L 2.230469 -10.667969 L 2.324219 -10.117188 L 2.292969 -5.167969 L 2.230469 -4.585938 L 2.324219 -3.972656 L 2.230469 -1.863281 L 2.292969 -1.191406 L 2.539062 -0.367188 L 3.453125 0.03125 L 5.65625 0.0625 L 6.328125 0 L 6.878906 0.03125 L 8.132812 -0.0625 L 8.710938 0.0625 L 9.414062 0.0898438 L 10.027344 0.03125 Z M 10.636719 0.0898438 "/></g></g></g><g fill="#037d43" fill-opacity="1"><g transform="translate(176.082981, 198.24712)"><g><path d="M 9.414062 0.0898438 L 10.332031 0.0898438 L 11.28125 -0.03125 L 11.890625 -0.03125 L 12.777344 -0.304688 L 14.03125 -0.519531 L 15.46875 -1.132812 L 17.515625 -2.507812 L 19.015625 -4.433594 L 19.320312 -5.042969 L 19.6875 -5.53125 L 20.175781 -6.726562 L 20.328125 -7.304688 L 20.449219 -7.949219 L 20.632812 -8.46875 L 20.726562 -9.078125 L 20.726562 -9.722656 L 20.816406 -10.699219 L 20.785156 -11.585938 L 20.359375 -14 L 19.960938 -15.164062 L 19.71875 -15.742188 L 18.679688 -17.363281 L 17.058594 -19.167969 L 15.5 -20.207031 L 14.917969 -20.542969 L 14.304688 -20.664062 L 13.785156 -20.910156 L 13.144531 -21.0625 L 11.339844 -21.335938 L 4.371094 -21.398438 L 3.820312 -21.308594 L 3.210938 -21.335938 L 2.539062 -21.0625 L 2.261719 -20.421875 L 2.230469 -3.332031 L 2.292969 -2.75 L 2.292969 -1.191406 L 2.597656 -0.246094 L 3.210938 0.0625 L 3.820312 0 L 7.550781 0.0625 L 8.160156 -0.03125 Z M 9.324219 -4.921875 L 8.742188 -4.984375 L 8.039062 -5.320312 L 7.796875 -5.898438 L 7.765625 -6.417969 L 7.796875 -7.671875 L 7.671875 -9.171875 L 7.796875 -10.699219 L 7.734375 -14.917969 L 7.796875 -15.4375 L 8.101562 -16.140625 L 9.078125 -16.355469 L 10.363281 -16.386719 L 11.25 -16.292969 L 12.441406 -15.957031 L 12.992188 -15.683594 L 13.449219 -15.347656 L 13.910156 -14.917969 L 14.367188 -14.367188 L 14.671875 -13.847656 L 14.949219 -13.296875 L 15.4375 -10.609375 L 15.132812 -8.46875 L 14.613281 -7.335938 L 13.480469 -6.050781 L 12.441406 -5.378906 L 11.554688 -5.105469 L 10.242188 -4.953125 Z M 9.324219 -4.921875 "/></g></g></g><g fill="#037d43" fill-opacity="1"><g transform="translate(198.303702, 198.24712)"><g/></g></g><g fill="#037d43" fill-opacity="1"><g transform="translate(206.586807, 198.24712)"><g><path d="M 12.257812 0.398438 L 14.980469 0.121094 L 16.140625 -0.246094 L 18.859375 -1.46875 L 21 -3.515625 L 21.398438 -4.066406 L 22.589844 -6.175781 L 22.804688 -6.753906 L 22.894531 -7.367188 L 23.078125 -7.855469 L 23.203125 -8.527344 L 23.355469 -10.667969 L 23.203125 -12.777344 L 22.957031 -13.910156 L 22.714844 -14.550781 L 22.558594 -15.253906 L 22.011719 -16.261719 L 21.796875 -16.8125 L 21.398438 -17.332031 L 21.03125 -17.699219 L 20.632812 -18.25 L 19.320312 -19.441406 L 17.761719 -20.421875 L 13.757812 -21.671875 L 12.320312 -21.703125 L 10.179688 -21.582031 L 9.566406 -21.460938 L 8.957031 -21.277344 L 8.40625 -21.03125 L 7.246094 -20.726562 L 5.6875 -19.746094 L 5.257812 -19.382812 L 4.28125 -18.707031 L 3.453125 -17.792969 L 2.414062 -16.261719 L 2.140625 -15.742188 L 1.558594 -14.0625 L 1.316406 -12.746094 L 1.191406 -9.203125 L 1.527344 -7.277344 L 1.988281 -6.234375 L 2.171875 -5.59375 L 2.476562 -5.042969 L 3.914062 -3.085938 L 4.769531 -2.261719 L 5.167969 -1.804688 L 7.246094 -0.703125 L 7.824219 -0.457031 L 10.425781 0.304688 Z M 11.402344 -4.984375 L 10.789062 -5.195312 L 10.242188 -5.257812 L 9.203125 -5.808594 L 8.253906 -6.632812 L 7.949219 -7.0625 L 7.550781 -7.488281 L 6.96875 -9.203125 L 6.816406 -10.730469 L 6.847656 -11.648438 L 7.0625 -12.777344 L 7.246094 -13.328125 L 7.613281 -13.757812 L 7.886719 -14.277344 L 8.285156 -14.765625 L 8.742188 -15.164062 L 9.628906 -15.773438 L 10.179688 -16.046875 L 10.820312 -16.203125 L 12.226562 -16.324219 L 13.695312 -16.230469 L 15.316406 -15.527344 L 16.261719 -14.824219 L 16.964844 -13.785156 L 17.210938 -13.238281 L 17.394531 -12.625 L 17.609375 -12.074219 L 17.730469 -10.761719 L 17.546875 -9.230469 L 17.273438 -7.980469 L 16.933594 -7.519531 L 16.660156 -7.0625 L 16.292969 -6.511719 L 15.347656 -5.777344 L 14.796875 -5.53125 L 14.304688 -5.257812 L 13.757812 -5.195312 L 13.175781 -5.042969 Z M 11.402344 -4.984375 "/></g></g></g><g fill="#037d43" fill-opacity="1"><g transform="translate(231.099893, 198.24712)"><g><path d="M 4.097656 0.0898438 L 5.59375 0.03125 L 6.144531 0.0625 L 6.847656 0 L 7.488281 -0.246094 L 7.765625 -0.886719 L 7.734375 -1.496094 L 7.765625 -2.171875 L 7.703125 -3.300781 L 7.765625 -3.882812 L 7.734375 -4.585938 L 8.007812 -5.136719 L 8.710938 -5.472656 L 9.382812 -5.53125 L 10.027344 -5.410156 L 13.175781 -5.65625 L 16.078125 -6.816406 L 16.539062 -7.183594 L 16.964844 -7.671875 L 17.363281 -8.070312 L 17.761719 -8.527344 L 18.402344 -9.507812 L 18.921875 -10.699219 L 19.015625 -11.371094 L 19.199219 -11.859375 L 19.257812 -14.367188 L 19.136719 -14.886719 L 19.042969 -15.558594 L 18.679688 -16.691406 L 18.097656 -17.730469 L 17.363281 -18.738281 L 15.988281 -19.929688 L 14.980469 -20.605469 L 13.757812 -20.96875 L 13.238281 -21.183594 L 12.625 -21.183594 L 12.015625 -21.398438 L 11.097656 -21.429688 L 10.117188 -21.398438 L 9.445312 -21.308594 L 7.582031 -21.335938 L 6.96875 -21.429688 L 5.074219 -21.308594 L 4.402344 -21.335938 L 3.851562 -21.429688 L 3.210938 -21.308594 L 2.566406 -20.96875 L 2.292969 -20.480469 L 2.324219 -16.78125 L 2.199219 -15.558594 L 2.261719 -14.980469 L 2.230469 -7.0625 L 2.292969 -6.480469 L 2.261719 -0.824219 L 2.597656 -0.246094 L 3.546875 0.0625 Z M 8.683594 -10.363281 L 8.070312 -10.730469 L 7.796875 -11.25 L 7.703125 -13.726562 L 7.765625 -14.367188 L 7.765625 -15.621094 L 8.070312 -16.203125 L 8.710938 -16.507812 L 11.890625 -16.414062 L 12.503906 -16.140625 L 12.992188 -15.804688 L 13.390625 -15.40625 L 13.695312 -14.796875 L 13.785156 -14.246094 L 13.847656 -13.390625 L 13.785156 -12.5625 L 13.574219 -12.015625 L 13.296875 -11.523438 L 12.898438 -11.035156 L 12.410156 -10.667969 L 11.921875 -10.515625 L 10.972656 -10.394531 L 9.414062 -10.425781 Z M 8.683594 -10.363281 "/></g></g></g><g fill="#037d43" fill-opacity="1"><g transform="translate(251.211628, 198.24712)"><g><path d="M 10.242188 0.121094 L 11.464844 0.0625 L 12.015625 -0.246094 L 12.320312 -0.824219 L 12.320312 -3.851562 L 11.953125 -4.433594 L 11.28125 -4.769531 L 10.636719 -4.769531 L 9.90625 -5.011719 L 9.539062 -5.714844 L 9.628906 -6.296875 L 9.597656 -9.660156 L 9.660156 -10.332031 L 9.539062 -12.535156 L 9.660156 -15.621094 L 9.875 -16.324219 L 10.546875 -16.597656 L 11.15625 -16.691406 L 11.800781 -16.933594 L 12.105469 -17.425781 L 12.136719 -20.449219 L 11.769531 -21.03125 L 11.21875 -21.367188 L 7.519531 -21.367188 L 6.96875 -21.429688 L 6.359375 -21.308594 L 3.851562 -21.308594 L 3.269531 -21.398438 L 2.566406 -21.398438 L 1.957031 -21.09375 L 1.652344 -20.359375 L 1.742188 -18.097656 L 1.679688 -17.515625 L 2.015625 -16.90625 L 2.691406 -16.570312 L 3.300781 -16.570312 L 3.882812 -16.203125 L 4.15625 -15.375 L 4.25 -5.992188 L 3.914062 -5.074219 L 1.894531 -4.464844 L 1.558594 -3.914062 L 1.46875 -1.101562 L 1.773438 -0.273438 L 2.382812 0 L 2.964844 0 L 3.546875 -0.0625 L 4.433594 0.0625 L 5.378906 0.03125 L 5.992188 -0.03125 L 7.214844 0.0898438 L 8.132812 -0.03125 L 9.628906 -0.03125 Z M 10.242188 0.121094 "/></g></g></g><g fill="#037d43" fill-opacity="1"><g transform="translate(265.088103, 198.24712)"><g><path d="M 18.035156 -0.519531 L 18.859375 -0.03125 L 19.71875 0.0625 L 20.390625 -0.152344 L 20.695312 -0.765625 L 20.757812 -11.921875 L 20.664062 -12.441406 L 20.664062 -15.46875 L 20.757812 -16.203125 L 20.664062 -20.449219 L 20.359375 -21.0625 L 19.746094 -21.398438 L 15.957031 -21.367188 L 15.375 -21.03125 L 15.039062 -20.390625 L 15.007812 -19.746094 L 15.101562 -19.257812 L 15.007812 -17.976562 L 15.070312 -17.300781 L 15.007812 -11.832031 L 14.824219 -11.3125 L 14.367188 -11.523438 L 12.195312 -13.695312 L 11.339844 -14.367188 L 5.320312 -20.449219 L 4.859375 -20.816406 L 4.15625 -21.183594 L 3.242188 -21.398438 L 2.539062 -21.09375 L 2.261719 -20.511719 L 2.261719 -11.25 L 2.230469 -10.730469 L 2.292969 -9.476562 L 2.199219 -8.957031 L 2.261719 -3.945312 L 2.199219 -3.363281 L 2.261719 -0.792969 L 2.539062 -0.214844 L 3.179688 0 L 4.433594 0.0625 L 5.105469 0 L 6.296875 0.0898438 L 6.9375 0.0625 L 7.550781 -0.246094 L 7.855469 -1.191406 L 7.886719 -8.925781 L 7.949219 -9.539062 L 8.160156 -10.058594 L 8.558594 -9.90625 L 8.957031 -9.382812 L 11.128906 -7.304688 L 11.523438 -6.847656 L 12.042969 -6.511719 L 16.78125 -1.804688 L 17.578125 -0.917969 Z M 18.035156 -0.519531 "/></g></g></g><g fill="#037d43" fill-opacity="1"><g transform="translate(288.134061, 198.24712)"><g><path d="M 10.242188 0.121094 L 11.464844 0.0625 L 12.015625 -0.246094 L 12.320312 -0.824219 L 12.320312 -3.851562 L 11.953125 -4.433594 L 11.28125 -4.769531 L 10.636719 -4.769531 L 9.90625 -5.011719 L 9.539062 -5.714844 L 9.628906 -6.296875 L 9.597656 -9.660156 L 9.660156 -10.332031 L 9.539062 -12.535156 L 9.660156 -15.621094 L 9.875 -16.324219 L 10.546875 -16.597656 L 11.15625 -16.691406 L 11.800781 -16.933594 L 12.105469 -17.425781 L 12.136719 -20.449219 L 11.769531 -21.03125 L 11.21875 -21.367188 L 7.519531 -21.367188 L 6.96875 -21.429688 L 6.359375 -21.308594 L 3.851562 -21.308594 L 3.269531 -21.398438 L 2.566406 -21.398438 L 1.957031 -21.09375 L 1.652344 -20.359375 L 1.742188 -18.097656 L 1.679688 -17.515625 L 2.015625 -16.90625 L 2.691406 -16.570312 L 3.300781 -16.570312 L 3.882812 -16.203125 L 4.15625 -15.375 L 4.25 -5.992188 L 3.914062 -5.074219 L 1.894531 -4.464844 L 1.558594 -3.914062 L 1.46875 -1.101562 L 1.773438 -0.273438 L 2.382812 0 L 2.964844 0 L 3.546875 -0.0625 L 4.433594 0.0625 L 5.378906 0.03125 L 5.992188 -0.03125 L 7.214844 0.0898438 L 8.132812 -0.03125 L 9.628906 -0.03125 Z M 10.242188 0.121094 "/></g></g></g><g fill="#037d43" fill-opacity="1"><g transform="translate(302.010557, 198.24712)"><g><path d="M 12.257812 0.398438 L 14.980469 0.121094 L 16.140625 -0.246094 L 18.859375 -1.46875 L 21 -3.515625 L 21.398438 -4.066406 L 22.589844 -6.175781 L 22.804688 -6.753906 L 22.894531 -7.367188 L 23.078125 -7.855469 L 23.203125 -8.527344 L 23.355469 -10.667969 L 23.203125 -12.777344 L 22.957031 -13.910156 L 22.714844 -14.550781 L 22.558594 -15.253906 L 22.011719 -16.261719 L 21.796875 -16.8125 L 21.398438 -17.332031 L 21.03125 -17.699219 L 20.632812 -18.25 L 19.320312 -19.441406 L 17.761719 -20.421875 L 13.757812 -21.671875 L 12.320312 -21.703125 L 10.179688 -21.582031 L 9.566406 -21.460938 L 8.957031 -21.277344 L 8.40625 -21.03125 L 7.246094 -20.726562 L 5.6875 -19.746094 L 5.257812 -19.382812 L 4.28125 -18.707031 L 3.453125 -17.792969 L 2.414062 -16.261719 L 2.140625 -15.742188 L 1.558594 -14.0625 L 1.316406 -12.746094 L 1.191406 -9.203125 L 1.527344 -7.277344 L 1.988281 -6.234375 L 2.171875 -5.59375 L 2.476562 -5.042969 L 3.914062 -3.085938 L 4.769531 -2.261719 L 5.167969 -1.804688 L 7.246094 -0.703125 L 7.824219 -0.457031 L 10.425781 0.304688 Z M 11.402344 -4.984375 L 10.789062 -5.195312 L 10.242188 -5.257812 L 9.203125 -5.808594 L 8.253906 -6.632812 L 7.949219 -7.0625 L 7.550781 -7.488281 L 6.96875 -9.203125 L 6.816406 -10.730469 L 6.847656 -11.648438 L 7.0625 -12.777344 L 7.246094 -13.328125 L 7.613281 -13.757812 L 7.886719 -14.277344 L 8.285156 -14.765625 L 8.742188 -15.164062 L 9.628906 -15.773438 L 10.179688 -16.046875 L 10.820312 -16.203125 L 12.226562 -16.324219 L 13.695312 -16.230469 L 15.316406 -15.527344 L 16.261719 -14.824219 L 16.964844 -13.785156 L 17.210938 -13.238281 L 17.394531 -12.625 L 17.609375 -12.074219 L 17.730469 -10.761719 L 17.546875 -9.230469 L 17.273438 -7.980469 L 16.933594 -7.519531 L 16.660156 -7.0625 L 16.292969 -6.511719 L 15.347656 -5.777344 L 14.796875 -5.53125 L 14.304688 -5.257812 L 13.757812 -5.195312 L 13.175781 -5.042969 Z M 11.402344 -4.984375 "/></g></g></g><g fill="#037d43" fill-opacity="1"><g transform="translate(326.523633, 198.24712)"><g><path d="M 18.035156 -0.519531 L 18.859375 -0.03125 L 19.71875 0.0625 L 20.390625 -0.152344 L 20.695312 -0.765625 L 20.757812 -11.921875 L 20.664062 -12.441406 L 20.664062 -15.46875 L 20.757812 -16.203125 L 20.664062 -20.449219 L 20.359375 -21.0625 L 19.746094 -21.398438 L 15.957031 -21.367188 L 15.375 -21.03125 L 15.039062 -20.390625 L 15.007812 -19.746094 L 15.101562 -19.257812 L 15.007812 -17.976562 L 15.070312 -17.300781 L 15.007812 -11.832031 L 14.824219 -11.3125 L 14.367188 -11.523438 L 12.195312 -13.695312 L 11.339844 -14.367188 L 5.320312 -20.449219 L 4.859375 -20.816406 L 4.15625 -21.183594 L 3.242188 -21.398438 L 2.539062 -21.09375 L 2.261719 -20.511719 L 2.261719 -11.25 L 2.230469 -10.730469 L 2.292969 -9.476562 L 2.199219 -8.957031 L 2.261719 -3.945312 L 2.199219 -3.363281 L 2.261719 -0.792969 L 2.539062 -0.214844 L 3.179688 0 L 4.433594 0.0625 L 5.105469 0 L 6.296875 0.0898438 L 6.9375 0.0625 L 7.550781 -0.246094 L 7.855469 -1.191406 L 7.886719 -8.925781 L 7.949219 -9.539062 L 8.160156 -10.058594 L 8.558594 -9.90625 L 8.957031 -9.382812 L 11.128906 -7.304688 L 11.523438 -6.847656 L 12.042969 -6.511719 L 16.78125 -1.804688 L 17.578125 -0.917969 Z M 18.035156 -0.519531 "/></g></g></g><g fill="#037d43" fill-opacity="1"><g transform="translate(349.569591, 198.24712)"><g><path d="M 8.222656 0.273438 L 10.636719 0.335938 L 11.25 0.273438 L 11.859375 0.121094 L 12.472656 0.03125 L 13.082031 -0.214844 L 13.632812 -0.273438 L 14.214844 -0.550781 L 16.292969 -1.804688 L 17.179688 -2.71875 L 17.484375 -3.148438 L 17.820312 -3.820312 L 18.003906 -4.371094 L 18.1875 -4.890625 L 18.371094 -6.417969 L 18.3125 -7.398438 L 17.851562 -9.171875 L 17.515625 -9.660156 L 16.722656 -10.578125 L 16.171875 -11.066406 L 15.683594 -11.3125 L 15.132812 -11.648438 L 12.746094 -12.378906 L 12.136719 -12.472656 L 11.523438 -12.503906 L 10.882812 -12.625 L 9.996094 -12.625 L 8.375 -12.960938 L 7.246094 -13.511719 L 6.785156 -13.941406 L 6.664062 -14.855469 L 6.816406 -15.683594 L 7.183594 -16.078125 L 7.640625 -16.414062 L 8.132812 -16.691406 L 8.683594 -16.8125 L 9.660156 -16.84375 L 10.636719 -16.722656 L 11.1875 -16.570312 L 11.738281 -16.203125 L 12.257812 -15.773438 L 12.714844 -15.164062 L 13.390625 -14.765625 L 14.824219 -14.886719 L 15.652344 -14.824219 L 16.261719 -14.824219 L 16.8125 -14.765625 L 17.394531 -15.191406 L 17.636719 -15.710938 L 17.515625 -16.292969 L 17.453125 -16.875 L 16.597656 -18.464844 L 15.925781 -19.382812 L 13.910156 -20.785156 L 12.195312 -21.367188 L 11.003906 -21.613281 L 8.652344 -21.671875 L 7.980469 -21.488281 L 7.367188 -21.460938 L 6.816406 -21.367188 L 5.65625 -21 L 4.617188 -20.390625 L 3.148438 -19.382812 L 2.078125 -17.945312 L 1.527344 -16.261719 L 1.4375 -14.765625 L 1.46875 -13.816406 L 1.679688 -12.59375 L 2.171875 -11.523438 L 3.300781 -10.117188 L 5.378906 -8.988281 L 6.480469 -8.621094 L 11.28125 -8.070312 L 12.378906 -7.550781 L 12.777344 -7.183594 L 12.960938 -6.417969 L 12.714844 -5.65625 L 12.320312 -5.195312 L 11.28125 -4.738281 L 10.332031 -4.675781 L 9.78125 -4.585938 L 8.222656 -4.738281 L 7.703125 -5.011719 L 7.183594 -5.347656 L 6.175781 -6.449219 L 5.5625 -6.695312 L 5.011719 -6.632812 L 4.433594 -6.726562 L 2.078125 -6.601562 L 1.527344 -6.359375 L 1.285156 -5.714844 L 1.375 -5.105469 L 1.496094 -4.492188 L 1.679688 -3.945312 L 2.261719 -2.8125 L 2.691406 -2.414062 L 3.085938 -1.957031 L 4.15625 -1.285156 L 4.585938 -0.824219 L 5.167969 -0.550781 L 5.777344 -0.367188 L 6.96875 0.0625 Z M 8.222656 0.273438 "/></g></g></g></svg>