<svg xmlns="http://www.w3.org/2000/svg" xmlns:xlink="http://www.w3.org/1999/xlink" width="500" zoomAndPan="magnify" viewBox="0 0 375 374.999991" height="500" preserveAspectRatio="xMidYMid meet" version="1.0"><path fill="#f8c909" d="M 217.558594 20.894531 C 202.28125 -0.191406 170.863281 -0.191406 155.585938 20.894531 C 152.519531 25.121094 146.796875 26.429688 142.203125 23.949219 C 119.289062 11.578125 90.980469 25.210938 86.367188 50.835938 C 85.441406 55.976562 80.851562 59.636719 75.632812 59.394531 C 49.621094 58.195312 30.035156 82.757812 36.992188 107.847656 C 38.390625 112.882812 35.84375 118.171875 31.035156 120.21875 C 7.082031 130.417969 0.0898438 161.050781 17.246094 180.636719 C 20.6875 184.566406 20.6875 190.433594 17.246094 194.363281 C 0.0898438 213.949219 7.082031 244.582031 31.035156 254.78125 C 35.84375 256.832031 38.390625 262.121094 36.992188 267.152344 C 30.035156 292.242188 49.621094 316.804688 75.632812 315.601562 C 80.851562 315.363281 85.441406 319.023438 86.367188 324.164062 C 90.980469 349.789062 119.289062 363.421875 142.203125 351.050781 C 146.796875 348.570312 152.519531 349.875 155.585938 354.109375 C 170.863281 375.191406 202.28125 375.191406 217.558594 354.109375 C 220.621094 349.875 226.347656 348.570312 230.941406 351.050781 C 253.855469 363.421875 282.160156 349.789062 286.777344 324.164062 C 287.703125 319.023438 292.292969 315.363281 297.511719 315.601562 C 323.519531 316.804688 343.109375 292.242188 336.148438 267.152344 C 334.753906 262.121094 337.300781 256.832031 342.109375 254.78125 C 366.0625 244.582031 373.054688 213.949219 355.898438 194.363281 C 352.457031 190.433594 352.457031 184.566406 355.898438 180.636719 C 373.054688 161.050781 366.0625 130.417969 342.109375 120.21875 C 337.300781 118.171875 334.753906 112.882812 336.148438 107.847656 C 343.109375 82.757812 323.519531 58.195312 297.511719 59.394531 C 292.292969 59.636719 287.703125 55.976562 286.777344 50.835938 C 282.160156 25.210938 253.855469 11.578125 230.941406 23.949219 C 226.347656 26.429688 220.621094 25.121094 217.558594 20.894531 Z M 217.558594 20.894531 " fill-opacity="1" fill-rule="nonzero"/><path fill="#037d43" d="M 186.570312 63.878906 C 118.296875 63.878906 62.949219 119.226562 62.949219 187.5 C 62.949219 255.773438 118.296875 311.121094 186.570312 311.121094 C 254.84375 311.121094 310.191406 255.773438 310.191406 187.5 C 310.191406 119.226562 254.84375 63.878906 186.570312 63.878906 Z M 186.570312 63.878906 " fill-opacity="1" fill-rule="nonzero"/><path fill="#f8c909" d="M 263.921875 143.902344 C 269.359375 149.339844 269.359375 158.15625 263.921875 163.59375 L 179.539062 247.976562 C 176.925781 250.585938 173.386719 252.054688 169.691406 252.054688 C 166 252.054688 162.457031 250.585938 159.847656 247.976562 L 109.21875 197.34375 C 103.78125 191.90625 103.78125 183.09375 109.21875 177.65625 C 114.65625 172.21875 123.472656 172.21875 128.910156 177.65625 L 169.691406 218.4375 L 244.230469 143.902344 C 249.667969 138.464844 258.484375 138.464844 263.921875 143.902344 Z M 263.921875 143.902344 " fill-opacity="1" fill-rule="evenodd"/><path fill="#f8c909" d="M 186.570312 5.078125 L 186.570312 369.921875 C 174.898438 369.921875 163.222656 364.648438 155.585938 354.109375 C 152.519531 349.875 146.796875 348.570312 142.203125 351.050781 C 119.289062 363.421875 90.980469 349.789062 86.367188 324.164062 C 85.441406 319.023438 80.851562 315.363281 75.632812 315.601562 C 49.621094 316.804688 30.035156 292.242188 36.992188 267.152344 C 38.390625 262.121094 35.84375 256.832031 31.035156 254.78125 C 7.082031 244.582031 0.0898438 213.949219 17.246094 194.363281 C 20.6875 190.433594 20.6875 184.566406 17.246094 180.636719 C 0.0898438 161.050781 7.082031 130.417969 31.035156 120.21875 C 35.84375 118.171875 38.390625 112.882812 36.992188 107.847656 C 30.035156 82.757812 49.621094 58.195312 75.632812 59.394531 C 80.851562 59.636719 85.441406 55.976562 86.367188 50.835938 C 90.980469 25.210938 119.289062 11.578125 142.203125 23.949219 C 146.796875 26.429688 152.519531 25.121094 155.585938 20.894531 C 163.222656 10.351562 174.898438 5.078125 186.570312 5.078125 Z M 186.570312 5.078125 " fill-opacity="1" fill-rule="evenodd"/><path fill="#037d43" d="M 186.570312 63.878906 L 186.570312 311.121094 C 118.296875 311.121094 62.949219 255.773438 62.949219 187.5 C 62.949219 119.226562 118.296875 63.878906 186.570312 63.878906 Z M 186.570312 63.878906 " fill-opacity="1" fill-rule="evenodd"/><path fill="#f8c909" d="M 186.570312 201.5625 L 186.570312 240.945312 L 179.539062 247.976562 C 176.925781 250.585938 173.386719 252.054688 169.691406 252.054688 C 166 252.054688 162.457031 250.585938 159.847656 247.976562 L 109.21875 197.34375 C 103.78125 191.90625 103.78125 183.09375 109.21875 177.65625 C 114.65625 172.21875 123.472656 172.21875 128.90625 177.65625 L 169.691406 218.4375 Z M 186.570312 201.5625 " fill-opacity="1" fill-rule="evenodd"/><path stroke-linecap="butt" transform="matrix(-0.00796062, 0.750065, -0.749958, -0.00795948, 190.49567, 64.181333)" fill="none" stroke-linejoin="miter" d="M -0.00141396 3.999675 L 327.964959 3.997756 " stroke="#037d43" stroke-width="8" stroke-opacity="1" stroke-miterlimit="4"/><path stroke-linecap="round" transform="matrix(-0.531548, 0.531548, -0.53033, -0.53033, 271.855856, 155.587871)" fill="none" stroke-linejoin="miter" d="M 18.499209 18.501134 L 172.067581 18.501134 " stroke="#f8c909" stroke-width="37" stroke-opacity="1" stroke-miterlimit="4"/></svg>